<?xml version="1.0" encoding="utf-8"?>
<!-- Generator: Adobe Illustrator 26.0.0, SVG Export Plug-In . SVG Version: 6.00 Build 0)  -->
<svg version="1.1" id="Camada_1" xmlns="http://www.w3.org/2000/svg" xmlns:xlink="http://www.w3.org/1999/xlink" x="0px" y="0px"
	 viewBox="0 0 249.26 122.87" style="enable-background:new 0 0 249.26 122.87;" xml:space="preserve">
<style type="text/css">
	.st0{fill-rule:evenodd;clip-rule:evenodd;fill:#FBFBFB;}
	.st1{fill-rule:evenodd;clip-rule:evenodd;fill:#FCFCFC;}
	.st2{fill-rule:evenodd;clip-rule:evenodd;fill:#020202;}
	.st3{fill-rule:evenodd;clip-rule:evenodd;fill:#E20612;}
	.st4{fill-rule:evenodd;clip-rule:evenodd;fill:#010101;}
	.st5{fill-rule:evenodd;clip-rule:evenodd;fill:#9D9D9B;}
	.st6{fill-rule:evenodd;clip-rule:evenodd;fill:#868686;}
	.st7{font-family:'Candara-Bold';}
	.st8{font-size:7.9858px;}
</style>
<g>
	<path class="st0" d="M128.09,95.53c-0.11-0.51-0.51-0.51-0.86-0.8c-0.29-0.17-0.51-0.46-0.91-0.63
		C126.49,95.08,127.01,95.88,128.09,95.53z"/>
	<path class="st1" d="M194.53,92.73c0.06,0.23,1.09,1.94,1.26,2.17l-0.11-3.2c-0.29,0.06-0.34,0.11-0.63,0.4
		C194.87,92.28,194.64,92.45,194.53,92.73L194.53,92.73z"/>
	<path class="st2" d="M80.22,28.47c0.34,0.34,0.46,0.46,0.91,0.69c0.23-0.51,0.91-1.31,1.31-1.83c0.46-0.63,0.86-1.26,1.37-1.89
		c-0.23,1.71-0.51,3.66-0.57,5.43c0.34,0.29,0.46,0.51,0.91,0.69c0.4-0.97,3.48-4.4,3.66-4.8c-0.17-0.11-0.69-0.51-0.86-0.63
		c-0.4,0.34-0.91,1.14-1.26,1.66l-0.97,1.31c-0.11,0.17,0,0-0.11,0.17l-0.06,0.06l-0.06,0.06l0.46-4.86
		c-0.23-0.23-0.74-0.63-1.03-0.8l-2.74,3.54C80.85,27.61,80.5,28.01,80.22,28.47L80.22,28.47z"/>
	<path class="st2" d="M34.57,95.99c0.4-1.14,1.83-2.68,2.17-3.77c0.06,0.51-0.11,1.83-0.11,2.57c0,0.86-0.06,1.77-0.06,2.63
		c0.29,0.23,0.74,0.51,1.09,0.69c0.11-0.11,0,0,0.17-0.17l0.69-1.09c0.29-0.46,0.51-0.8,0.8-1.26c0.46-0.74,1.31-1.77,1.66-2.57
		l-0.91-0.57c-0.74,0.86-2,3.37-2.4,3.83c0.06-1.77,0-3.66,0.06-5.43c-0.4-0.17-0.51-0.4-0.97-0.57c-0.46,0.86-1.09,1.77-1.6,2.57
		c-0.4,0.63-1.43,1.94-1.66,2.51L34.57,95.99L34.57,95.99z"/>
	<path class="st2" d="M38.8,21.38c0.57-0.29,1.77-1.03,2.11,0c0.34,0.97-0.57,1.49-1.31,1.71L38.8,21.38L38.8,21.38z M37.32,21.15
		c0.51,1.26,2.29,4.06,2.63,5.37l1.2-0.57l-1.09-2.06c0.06-0.06,0.06-0.06,0.06-0.06l0.06-0.06c1.14-0.86,1.83,0.06,2.91,1.14
		l1.2-0.57c-0.4-0.57-1.83-1.83-2.86-1.89c0.29-0.46,0.69-1.03,0.46-1.83C41.14,18.35,37.43,21.04,37.32,21.15L37.32,21.15z"/>
	<path class="st2" d="M25.61,32.12c0.23-0.57,1.03-1.66,1.89-0.97c0.91,0.74-0.17,1.77-0.46,2.06
		C26.58,33.04,26.01,32.47,25.61,32.12z M24.06,32.41c1.14,1.09,3.6,2.91,4.46,4c0.4-0.17,0.74-0.63,0.91-1.03
		c-0.57-0.34-1.31-0.97-1.77-1.49c0.11-0.23,0-0.06,0.23-0.34c0.11-0.11,0.23-0.23,0.34-0.34c0.29-0.23,0.51-0.23,0.91-0.17
		c0.63,0.11,1.2,0.51,1.83,0.63c0.23-0.17,0.74-0.74,0.86-1.03c-1.09-0.34-2.17-0.97-3.37-0.57c0.4-2.23-1.14-2.63-2.06-2.11
		C25.83,30.29,24.58,31.78,24.06,32.41L24.06,32.41z"/>
	<path class="st2" d="M91.99,87.82c-0.29-0.34-0.8-0.63-1.14-0.91c-1.2-0.91-3.2-2.11-2.11-3.37c1.31-1.66,3.94,1.77,4.91,2.23
		c0.23-0.23,0.63-0.69,0.74-0.97c-0.34-0.4-1.03-0.86-1.43-1.14c-0.51-0.4-0.97-0.74-1.49-1.09c-1.37-0.91-2.57-0.86-3.48,0.4
		c-1.83,2.57,0.8,3.94,3.26,5.83C91.47,88.51,91.82,88.11,91.99,87.82L91.99,87.82z"/>
	<path class="st2" d="M90.44,80.34l2.51,1.31l0.57-1.09l-1.89-0.97c0.57-2.68,4.74-1.54,4.23,0.8c-0.17,0.86-0.8,1.14-1.03,1.77
		c0.51,0.23,0.4,0.4,1.03,0.51c0.06-0.46,1.2-1.43,1.09-3.03c-0.11-1.26-0.91-2.17-1.77-2.63C92.73,75.71,90.62,78.11,90.44,80.34
		L90.44,80.34z"/>
	<path class="st2" d="M71.02,23.78l3.71,1.43l0.4-0.97l-2.57-0.86c0.17-0.51,0.34-1.26,0.63-1.66l1.83,0.69l0.4-0.91l-1.94-0.63
		l0.46-1.43l2.4,0.97l0.4-0.97l-3.48-1.31c-0.34,0.51-0.86,2.23-1.09,2.86C71.82,21.84,71.25,22.98,71.02,23.78L71.02,23.78z"/>
	<path class="st2" d="M83.3,89.36c0.34-0.23,1.49-1.49,1.83-1.89c0.51,0.29,0.86,0.8,1.26,1.2c-0.23,0.34-1.14,1.14-1.49,1.37
		c0.17,0.34,0.29,0.46,0.63,0.69c0.4-0.34,1.09-1.09,1.54-1.37c0.34,0.29,0.74,0.63,0.97,0.97c-0.23,0.4-1.54,1.37-1.77,1.71
		c0.17,0.29,0.4,0.51,0.69,0.74l2.68-2.63l-1.03-1.09c-0.23-0.23-0.34-0.34-0.51-0.57c-1.2-1.14-1.83-2-2.63-2.68
		c-0.46,0.17-0.4,0.34-0.74,0.69c-0.23,0.23-0.46,0.4-0.69,0.63c-0.4,0.4-1.03,1.03-1.43,1.26c0.11,0.29,0.11,0.34,0.29,0.51
		C83.13,89.36,83.02,89.19,83.3,89.36L83.3,89.36z"/>
	<path class="st2" d="M20.86,37.26c0.46,0.46,1.89,1.2,2.51,1.6c0.46,0.29,0.8,0.51,1.26,0.8c0.4,0.23,0.8,0.63,1.26,0.86
		c0.23-0.17,0.4-0.51,0.57-0.74l1.6-2.51l-0.86-0.46l-1.26,2.11c-0.46-0.11-1.31-0.69-1.54-0.91c0.29-0.57,0.91-1.14,1.09-1.77
		c-0.4-0.11-0.4-0.29-0.8-0.4c-0.34,0.34-0.8,1.26-1.09,1.71c-0.4-0.17-0.8-0.51-1.26-0.74c0.29-0.8,1.09-1.43,1.37-2.17l-0.74-0.51
		C22.52,34.41,21.04,36.92,20.86,37.26L20.86,37.26z"/>
	<path class="st2" d="M19.44,42.18c0.17-0.8,0.69-1.94,1.71-1.49c0.8,0.34,0.57,1.66,0.06,2.23L19.44,42.18z M18.12,42.75
		c0.06,0.06,5.2,2.51,5.48,2.63l0.51-1.2l-2.06-0.86c0.17-0.86,0.74-1.37,0.46-2.57c-0.17-0.74-0.86-1.37-1.71-1.43
		C19.26,39.26,18.69,41.55,18.12,42.75L18.12,42.75z"/>
	<path class="st2" d="M29.49,92.22c0.46,0.46,1.14,1.09,1.77,1.26c1.2,0.29,2.17-0.69,2.06-1.83c-0.11-0.86-1.37-2.51-0.51-2.97
		c0.74-0.4,1.94,1.2,2.11,1.66c0.46-0.17,0.51-0.34,0.91-0.51c-0.34-0.8-2.51-3.08-3.94-2c-2.06,1.6,0.51,3.14-0.06,4.57
		c-1.03,0.23-1.6-0.8-2.11-1.37c-0.23,0.11-0.23,0.11-0.4,0.29c-0.17,0.11-0.17,0.11-0.34,0.29L29.49,92.22L29.49,92.22z"/>
	<path class="st2" d="M79.42,27.78c0.17-0.34,0.34-0.51,0.51-0.91c-0.74-0.23-1.43-0.51-1.83-0.97c-1.03-1.26,0.06-3.37,1.43-3.54
		c0.91-0.11,1.43,0.57,1.94,0.86l0.34-0.34c0.17-0.23,0.17-0.23,0.29-0.46c-1.14-1.43-4.06-1.71-5.37,0.63
		C75.48,25.44,77.42,27.44,79.42,27.78L79.42,27.78z"/>
	<path class="st2" d="M27.38,88.79c0.51-0.69,2.86-2.63,3.71-3.48c-0.17-0.34-0.4-0.63-0.86-0.91c-0.4,0.23-0.69,0.57-0.97,0.91
		c-0.4,0.46-0.46,0.51-0.86,0.86c-0.69,0.57-1.49,1.49-2,1.66c-0.23-0.34-0.74-0.97-1.03-1.26c-0.34,0.17-0.46,0.34-0.74,0.63
		l3.26,3.48l0.74-0.57C28.29,89.59,27.72,89.31,27.38,88.79L27.38,88.79z"/>
	<path class="st2" d="M21.32,80.57l-0.74-1.54l-0.86,0.4l2.29,4.23l0.86-0.4l-0.86-1.49c0.34-0.46,4.17-2.4,4.46-2.46l-0.63-1.2
		C24.86,78.57,22.18,80.28,21.32,80.57L21.32,80.57z"/>
	<path class="st2" d="M79.13,92.33c0.29-0.11,0.8-0.57,1.09-0.8c0.34-0.23,0.69-0.57,1.03-0.74c0.51,0.69,0.97,1.37,1.49,2.11
		c0.29,0.4,1.26,1.83,1.49,2.06c0.29-0.23,0.69-0.4,0.97-0.69c-0.11-0.34-1.54-2.11-1.77-2.46c-0.4-0.51-1.43-1.89-1.66-2.46
		l-3.2,2.34L79.13,92.33L79.13,92.33z"/>
	<path class="st2" d="M85.07,32.58c0.34,0.34,0.51,0.69,0.97,0.91c1.37-1.66,2.97-2.86,4.28-4.23l-0.8-0.91
		c-0.4,0.17-1.89,1.71-2.23,2.11C86.62,31.21,85.65,31.78,85.07,32.58z"/>
	<path class="st2" d="M23.61,85.82c0.51-0.17,1.89-1.31,2.51-1.71l2.51-1.71c-0.11-0.29-0.46-0.74-0.69-1.03
		c-0.57,0.29-3.94,2.97-5.03,3.43L23.61,85.82L23.61,85.82z"/>
	<path class="st2" d="M74.79,18.18c0.51,0.17,0.57,0.34,1.2,0.06c0.34-0.17,0.8-0.29,1.09-0.51c-1.03-0.8-1.43-0.29-1.77-0.06
		c-0.06,0.06-0.11,0.06-0.23,0.17C74.85,18.07,74.96,17.9,74.79,18.18L74.79,18.18z"/>
	<path class="st3" d="M120.21,76.57v3.2c0.97,0.17,107.51,0.06,120.94,0.06c1.09,0,2.97-0.11,3.94,0.06v-3.77H120.21L120.21,76.57
		L120.21,76.57z"/>
	<path class="st3" d="M38.17,43.72L37.43,44l2.46,24.62c1.66-0.46,3.71-2.29,9.6-3.03c3.03-0.34,5.88-0.17,8.85,0.34
		c0.91,0.17,1.83-0.46,2.74-0.23l0.06-0.06l0.97-0.17c2.8-0.23,5.37-0.11,8.11,0.46c1.31,0.29,2.57,0.63,3.77,1.09l3.43,1.49
		c0.17-2.57,2.51-24.11,2.34-24.62c-1.94-0.57-5.03-0.63-7.14-0.51c-3.83,0.46-6.63,1.37-9.54,3.71c-0.69,0.57-1.83,1.6-2.29,2.23
		c5.83-2.68,9.94-4.23,16.97-3.48c0.29,1.03-1.71,16.45-1.83,19.77c-0.4,0-3.26-0.91-4.06-1.09c-3.03-0.69-6.23-0.86-9.31-0.11
		c-0.74,0.17-1.37,0.34-2,0.57c-2.74,1.03-1.09,0.97-3.71,0c-4.57-1.6-8.8-1.26-13.37,0c-0.63,0.17-1.43,0.51-2,0.63
		c-0.29-3.31-0.63-6.63-0.97-9.88c-0.11-1.43-1.03-9.2-0.91-9.71v-0.06c0.11-0.46,4.34-0.29,4.91-0.29c1.6,0.11,3.03,0.34,4.51,0.69
		c4.17,0.97,5.26,2.11,7.54,2.91c-1.26-1.2-1.31-1.54-3.2-2.86C46.4,41.66,39.32,43.95,38.17,43.72L38.17,43.72z"/>
	<path class="st3" d="M34.12,45.32C33.89,46.29,36.8,70.34,37.37,76c0,0.17,0,0.34,0.06,0.51l0.17,0.51
		c0.46-1.03,2.34-3.08,3.14-3.83c2.4-2.34,5.48-4.11,8.85-5.14c2.11-0.63,3.77-0.74,6.06-1.03c-6.57-1.37-10.17-0.17-14.91,3.77
		c-0.34,0.29-1.2,1.26-1.49,1.31l-3.08-26.56L36,44.4C35.26,44.4,34.69,44.92,34.12,45.32C34.17,45.32,34.17,45.32,34.12,45.32
		L34.12,45.32z"/>
	<path class="st3" d="M61.88,66.86l-0.34,0.17c6.11,0.4,10.85,2.29,14.91,6.17l2.46,2.74c0.23,0.29,0.4,0.86,0.8,0.97l3.31-30.45
		c0.06-0.86,0.17-1.03-0.46-1.49c-0.29-0.23-0.97-0.57-1.43-0.46c-0.4,3.03-3.03,27.02-3.31,27.65c-0.8-0.46-2.34-2.86-6.46-4.57
		C67.77,66,65.37,66.46,61.88,66.86z"/>
	<path class="st3" d="M61.14,100.85c0.4-1.49-0.63-2.86-1.83-3.2c-1.6-0.46-2.97,0.63-3.26,1.83
		C55.2,102.85,60.28,104.16,61.14,100.85z"/>
	<path class="st4" d="M58.91,113.53v-5.08c1.31-0.23,3.26-0.17,4.68-0.29c1.2-0.11,3.43-0.57,4.34-0.57
		c0.17,1.09,0.97,4.17,0.91,4.97C67.14,113.07,60.8,113.7,58.91,113.53z M49.26,107.53c1.43,0.17,2.8,0.46,4.34,0.63
		c1.6,0.17,3.14,0.23,4.74,0.23v5.14c-3.71,0-6.57-0.51-10.05-0.97L49.26,107.53L49.26,107.53z M68.51,107.47l8.74-2.68l1.89,4.68
		c-1.71,0.91-7.43,2.63-9.65,2.91L68.51,107.47z M47.71,112.44c-1.6-0.11-8.45-2.17-9.6-2.91l1.89-4.68
		c0.51,0.06,1.49,0.51,2.11,0.74c1.83,0.63,4.8,1.54,6.63,1.83L47.71,112.44L47.71,112.44z M79.7,109.24l-2-4.74
		c1.37-0.4,4.68-2.23,6.11-3.08c0.69-0.4,1.26-0.86,1.89-1.14l2.86,4.17C87.53,105.53,81.48,108.67,79.7,109.24L79.7,109.24z
		 M28.75,104.5l2.8-4.23c0.06,0,4.28,2.57,5.94,3.31c0.46,0.23,1.77,0.74,2.06,0.97c-0.29,0.69-1.71,4.34-2,4.68
		c-1.6-0.63-3.03-1.37-4.51-2.17C32.18,106.73,29.09,104.96,28.75,104.5L28.75,104.5z M89.02,104.16l-2.8-4.17
		c0.29-0.34,0.57-0.46,0.91-0.63c0.34-0.23,0.63-0.46,0.91-0.69c1.43-1.03,3.03-2.4,4.34-3.6c0.29-0.29,0.51-0.57,0.8-0.8
		c0.46,0.23,3.26,3.08,3.66,3.6c-1.66,1.71-2,1.94-3.66,3.31C92.5,101.7,89.76,103.93,89.02,104.16z M24.06,94.22
		c0.51,0.4,1.09,0.97,1.6,1.49l3.48,2.86c0.63,0.51,1.31,0.86,1.89,1.37l-2.8,4.23c-0.86-0.4-5.03-3.66-5.88-4.57
		c-0.51-0.57-1.37-1.31-1.89-1.71C20.58,97.53,23.61,94.56,24.06,94.22L24.06,94.22z M97.3,97.36c-0.34-0.17-3.31-3.2-3.66-3.6
		c0.34-0.46,0.34-0.4,0.74-0.74l1.49-1.66c0.97-1.14,1.94-2.34,2.8-3.6c0.23-0.34,0.4-0.63,0.69-0.91c0.4,0.11,3.88,2.46,4.23,2.8
		c-0.63,1.31-4.17,5.43-5.37,6.8C97.87,96.79,97.59,96.96,97.3,97.36L97.3,97.36z M13.67,89.65l4.17-2.86
		c0.46,0.46,2.8,3.88,4.17,5.31c0.57,0.63,1.09,1.09,1.54,1.66c-0.23,0.34-3.26,3.43-3.71,3.6c-0.46-0.69-1.03-1.14-1.66-1.83
		c-0.29-0.29-0.46-0.51-0.8-0.91c-0.23-0.29-0.51-0.63-0.8-0.97c-0.57-0.69-1.03-1.26-1.54-1.94
		C14.69,91.19,13.89,90.22,13.67,89.65L13.67,89.65z M103.93,89.08l-4.17-2.8c0.46-1.09,3.48-5.31,4.17-8
		c0.63,0.11,1.83,0.69,2.46,0.97c0.63,0.29,1.89,0.63,2.34,1.03C108.38,81.19,105.01,88.28,103.93,89.08z M8.52,80.34
		c0.34-0.34,3.94-1.71,4.68-2l2,4.06c0.34,0.63,0.74,1.31,1.09,1.94c0.34,0.57,0.97,1.43,1.2,1.94l-4.17,2.86
		c-0.51-0.51-2.11-3.37-2.57-4.17C9.95,83.48,9.21,81.88,8.52,80.34L8.52,80.34z M108.9,79.71l-4.68-1.89l1.43-4.17
		c0.4-1.37,0.91-3.08,1.14-4.51l4.97,0.97v0.63C111.35,72.68,109.7,78.62,108.9,79.71z M5.44,70.05l4.91-0.97
		c0.23,0.4,0.97,3.71,1.2,4.51l1.43,4.23l-4.74,1.94c-0.17-0.74-0.57-1.6-0.86-2.34C6.93,76.05,5.38,71.14,5.44,70.05z
		 M111.92,69.48l-4.91-0.91c-0.06-0.46,0.46-3.48,0.57-4.28c0.17-1.6,0.23-3.14,0.23-4.74h5.14
		C112.9,61.49,112.61,67.94,111.92,69.48L111.92,69.48z M4.3,59.49h5.14c0,1.54,0.11,3.08,0.23,4.63c0.11,1.26,0.57,3.26,0.57,4.4
		l-5.03,1.03C4.75,65.03,4.35,64.68,4.3,59.49L4.3,59.49z M106.67,60.91c-0.4,7.43-1.94,13.42-4.74,19.25
		c-2.23,4.57-3.77,6.51-6.51,10c-4.46,5.66-11.77,10.63-18.17,13.42c-5.94,2.57-13.14,3.94-20.39,3.71
		c-25.99-0.97-47.24-22.74-46.22-49.93c0.91-25.88,22.79-47.19,49.87-46.16c7.14,0.29,13.6,2.06,19.19,4.8
		c4.68,2.29,7.14,4.23,10.8,7.2c0.29,0.23,0.51,0.51,0.8,0.74c1.77,1.54,3.6,3.6,5.08,5.48C103.13,38.01,107.24,49.43,106.67,60.91
		L106.67,60.91z M106.95,49.83l4.97-0.97c0.57,1.31,1.14,8.4,0.97,10.05h-5.08c-0.11-1.54-0.11-3.14-0.29-4.68
		C107.41,52.92,106.95,50.92,106.95,49.83L106.95,49.83z M9.38,58.91H4.3c-0.11-2.34,0.4-7.88,0.97-10.05l4.97,0.97
		c0,0.97-0.46,3.2-0.57,4.4C9.5,55.77,9.55,57.49,9.38,58.91z M104.21,40.58l4.68-1.89c0.69,0.86,2.74,8.11,2.97,9.65l-5.03,0.97
		C106.21,45.6,104.33,41.32,104.21,40.58L104.21,40.58z M10.47,49.26l-5.03-0.91c0.34-2.46,1.94-7.71,2.91-9.65l4.68,1.94
		C12.75,41.89,11.04,45.43,10.47,49.26L10.47,49.26z M99.7,32.01c0.46-0.17,1.54-0.97,2.06-1.31c0.63-0.4,1.49-1.03,2.11-1.37
		c0.34,0.29,1.14,1.66,1.37,2.06c0.97,1.66,2.97,5.14,3.43,6.8l-4.63,2l-2-4.11C101.53,35.09,99.76,32.29,99.7,32.01z M13.32,40.06
		l-4.74-1.94c0.63-1.94,3.71-7.65,4.74-8.85l4.23,2.8c-0.29,0.63-0.8,1.26-1.2,1.94C15.49,35.44,13.67,38.69,13.32,40.06z
		 M97.24,20.98c0.29,0.29,0.57,0.57,0.86,0.91c1.37,1.49,4.86,5.43,5.48,6.86c-0.34,0.34-3.83,2.68-4.28,2.8
		c-0.74-1.26-1.77-2.46-2.68-3.6c-0.97-1.26-2-2.29-3.03-3.37L97.24,20.98z M17.84,31.55c-0.63-0.29-3.31-2.23-4.23-2.74
		c0.57-1.26,4.11-5.48,5.48-6.97c0.29-0.34,0.63-0.57,0.91-0.86c0.46,0.34,3.37,3.26,3.6,3.66c-0.23,0.23-0.51,0.46-0.74,0.74
		c-0.29,0.29-0.46,0.57-0.74,0.86l-1.49,1.66c-0.51,0.57-0.91,1.14-1.37,1.77L17.84,31.55L17.84,31.55z M24.06,24.18
		c-0.63-0.29-1.2-1.14-1.83-1.71c-0.57-0.51-1.26-1.31-1.83-1.77c0.11-0.23,0.63-0.8,0.86-0.97c1.09-1.09,5.54-4.8,6.91-5.48
		c0.34,0.29,2.74,3.83,2.8,4.23L24.06,24.18L24.06,24.18z M89.02,14.24c1.14,0.46,3.94,2.91,5.03,3.77l2.74,2.57l-3.6,3.66
		c-1.14-0.97-1.89-1.89-3.31-2.97c-1.2-0.91-2.34-1.94-3.66-2.74L89.02,14.24z M77.76,13.78l1.89-4.68
		c1.09,0.29,3.66,1.66,4.63,2.17c0.74,0.4,1.43,0.8,2.11,1.26c0.34,0.23,0.74,0.46,1.09,0.63l0.8,0.51l0.06,0.06l0.17,0.17
		c-0.57,1.03-2.46,3.54-2.68,4.17c-0.46-0.17-2.86-1.71-3.94-2.23L77.76,13.78L77.76,13.78z M31.55,18.07
		c-0.34-0.34-2.68-3.83-2.86-4.28l4.23-2.51c1.2-0.69,3.2-1.71,4.57-2.17c0.34,0.34,1.89,4.34,2,4.8c-1.03,0.29-3.14,1.37-4.11,1.89
		L31.55,18.07L31.55,18.07z M38.12,8.93c0.91-0.69,8.05-2.8,9.6-2.91l0.97,5.03c-3.08,0.4-5.94,1.71-8.63,2.57
		C39.83,13.27,38.29,9.5,38.12,8.93L38.12,8.93z M69.48,6.02c1.2-0.06,8.91,2.34,9.65,2.91l-1.89,4.68
		c-1.09-0.23-4.8-1.94-8.74-2.57L69.48,6.02L69.48,6.02z M48.34,5.9c1.37-0.63,8.11-1.03,10-1.03v5.14c-1.6,0-3.2,0.11-4.74,0.23
		c-0.8,0.06-3.88,0.63-4.28,0.57L48.34,5.9z M58.91,4.93c1.94-0.23,8.11,0.46,10.05,0.97l-0.97,4.97c-1.03,0-3.14-0.46-4.34-0.57
		c-1.54-0.17-3.26-0.11-4.74-0.29V9.5V4.93L58.91,4.93z M40.29,111.59c0.91,0.17,2.06,0.63,2.97,0.91c0.97,0.29,2,0.57,3.03,0.8
		c0.74,0.17,6.46,1.09,6.57,1.14c0.8-0.11,2.29,0.11,3.2,0.17c7.37,0.29,13.71-0.69,20.68-2.97c6.63-2.17,12.05-5.6,17.31-9.71
		c4.91-3.88,9.2-9.25,12.4-14.62c1.6-2.63,3.2-6,4.28-9.14c1.77-5.03,1.71-5.83,2.74-10.74c0.46-4.57,0.8-8.28,0.4-13.02
		c-0.17-2-0.46-3.94-0.8-5.88c-0.4-2-0.97-3.71-1.37-5.54c-0.29-0.69-0.63-1.83-0.91-2.63c-0.29-0.86-0.8-1.94-1.03-2.74l-2.97-5.88
		c-1.83-3.08-3.26-5.26-5.43-7.88c-0.34-0.4-0.69-0.74-1.03-1.14l-5.6-5.6c-1.03-0.97-3.94-3.08-5.03-3.83
		c-5.31-3.71-12.17-6.63-18.68-8.11c-10.74-2.51-20.91-1.6-31.19,1.89c-5.26,1.77-12.68,6-16.91,9.77c-3.54,3.2-5.83,5.37-8.68,9.2
		c-4.06,5.43-6.8,11.03-8.85,17.82c-2.91,9.71-2.8,21.65,0.17,31.31c2.29,7.43,6,14.4,11.03,20.11l2.17,2.4
		c1.37,1.49,2.97,2.91,4.63,4.28C31.95,109.13,39.09,110.79,40.29,111.59z"/>
	<path class="st4" d="M55.77,26.3c7.08-0.63,14.17,1.14,19.94,4.63c2.11,1.31,2.91,2,4.74,3.48c6.17,5.14,10.4,13.77,11.08,21.94
		c1.6,19.19-12.85,34.33-30.11,35.82c-19.14,1.6-34.33-12.85-35.82-30.05c-0.46-5.2,0.34-10,1.94-14.45c0.74-2,1.66-3.88,2.68-5.54
		c1.31-2.17,3.66-5.2,5.48-6.86C41.49,30.12,47.71,26.98,55.77,26.3L55.77,26.3z M24.52,61.09c1.09,18.22,16.4,33.25,35.99,32.22
		c18.22-0.97,33.25-16.57,32.22-35.99C91.76,39.09,76.22,24.07,56.68,25.1C38.57,26.01,23.32,41.66,24.52,61.09L24.52,61.09z"/>
	<path class="st4" d="M33.83,44.52c0.11-0.57,1.43-2.34,1.83-2.8c1.26-1.6,2.86-3.43,4.46-4.68c8.91-7.26,20.97-8.85,31.42-3.66
		c2.91,1.43,5.88,3.66,7.94,5.88c0.4,0.46,1.94,2,2,2.51c0.51,0.23,2.23,2.97,2.46,3.71c0.74,0.63,2.34,5.37,2.68,6.8
		c1.94,8,0.4,16.28-3.83,22.74c-8.34,12.68-25.54,17.42-39.47,8.74c-1.03-0.63-1.94-1.31-2.8-2c-0.91-0.74-1.77-1.43-2.46-2.17
		c-7.08-7.26-10.23-18.28-7.14-28.45C31.32,49.66,32.98,45.15,33.83,44.52L33.83,44.52z M57.03,29.27
		c-16,0.91-29.31,14.45-28.33,31.53c0.86,15.94,14.45,29.25,31.53,28.33c16.05-0.86,29.31-14.45,28.33-31.59
		C87.7,41.61,74.05,28.29,57.03,29.27z"/>
	<path class="st4" d="M101.47,60.97c0.17,0.8,0.06,1.83-0.8,1.83c-0.91,0-0.86-1.03-0.8-1.89L101.47,60.97L101.47,60.97z
		 M98.96,60.86c0.06,0.86-0.06,2.06-0.91,2.11c-1.09,0.06-0.91-1.26-0.86-2.17L98.96,60.86z M99.59,62.97
		c0.51,1.54,2,1.31,2.46,0.51c0.4-0.74,0.46-2.63,0.46-3.6l-6.06-0.4c-0.29,1.66-0.57,5.2,1.94,4.74
		C99.13,64.06,99.19,63.43,99.59,62.97L99.59,62.97z"/>
	<path class="st4" d="M33.95,24.41c2.06-0.86,4.06,2.91,1.94,3.83c-1.43,0.57-3.08-1.26-2.8-2.8
		C33.15,24.81,33.43,24.64,33.95,24.41L33.95,24.41z M34.06,23.21c-4.06,1.09-1.94,7.14,1.66,6.17c1.43-0.4,2.63-1.94,2.06-3.88
		C37.37,24.18,36,22.7,34.06,23.21z"/>
	<path class="st4" d="M54,16.81c2.06-1.09,3.31,3.08,1.37,4C53.26,21.9,51.94,17.9,54,16.81z M54.17,15.67
		c-3.77,0.69-3.03,6.97,0.97,6.28C58.91,21.33,58.23,14.93,54.17,15.67z"/>
	<path class="st4" d="M17.61,60.97c2.8-0.57,3.54,2.68,0.97,3.26C15.67,64.86,14.64,61.6,17.61,60.97z M16.92,59.83
		c-3.88,1.14-2.06,6.86,2.17,5.6c1.43-0.4,2.57-1.89,1.89-3.77C20.52,60.17,18.81,59.26,16.92,59.83z"/>
	<path class="st4" d="M96.1,39.49c-0.74,2.29-4.74,2.23-3.94-0.34C92.9,36.86,96.9,36.98,96.1,39.49z M93.47,36.46
		c-4.4,1.2-2.63,6.8,1.2,5.83C98.96,41.26,97.53,35.38,93.47,36.46z"/>
	<path class="st4" d="M94.5,71.2l4.34,1.49c-1.94,0.23-3.48,0.69-5.37,1.03l-0.4,1.09c1.89,0.46,3.94,1.49,5.66,2.11l0.4-1.03
		l-4.17-1.49c0.86-0.17,1.66-0.23,2.51-0.4c0.8-0.17,1.66-0.4,2.51-0.46c0.17-0.29,0.4-0.86,0.46-1.26
		c-0.17-0.11-5.37-2.11-5.66-2.17L94.5,71.2L94.5,71.2z"/>
	<path class="st4" d="M99.47,46.12c0.46,1.6,0.23,2.68-1.26,3.08c-1.66,0.51-2.57-0.4-2.74-1.89L99.47,46.12z M94.16,46.4
		c0.23,1.09,0.51,2.34,1.14,3.14c1.49,1.77,4.97,1.14,5.43-1.14c0.17-0.91-0.34-2.91-0.74-3.66c-0.57,0.06-2.17,0.63-2.86,0.8
		C96.16,45.83,95.13,46.06,94.16,46.4L94.16,46.4z"/>
	<path class="st4" d="M77.88,94.9l0.4,2.63c-0.34-0.23-0.74-0.63-0.97-0.91c-0.29-0.29-0.74-0.74-0.86-0.97L77.88,94.9z
		 M77.65,93.99c-0.63,0.29-1.31,0.8-1.94,0.97c-0.34-0.46-0.69-0.86-1.14-1.26l-1.26,0.69c0.34,0.46,0.69,0.69,1.09,1.09l3.54,3.31
		l1.49-0.8c-0.11-0.86-0.74-6.06-0.97-6.4l-1.14,0.69L77.65,93.99L77.65,93.99z"/>
	<path class="st4" d="M16.92,46c1.43,0.8,5.03,0.63,4.74,2.57c-0.34,2.23-4.06,0.17-5.43,0l-0.4,1.26c2.51,0.4,5.77,2.51,6.74-0.74
		c0.46-1.66-0.4-2.57-1.54-3.03c-0.69-0.29-3.03-1.03-3.77-1.14L16.92,46L16.92,46z"/>
	<path class="st4" d="M17.09,73.31c0.11,0.46,0.23,0.86,0.46,1.2c1.37-0.4,4.74-2.57,5.37-0.63c0.63,1.89-3.2,2.46-4.46,3.08
		c0.11,0.4,0.29,0.91,0.51,1.2c0.8-0.23,2.74-1.03,3.48-1.37c1.14-0.57,2-1.43,1.43-3.08C22.69,70.34,19.44,72.74,17.09,73.31
		L17.09,73.31z"/>
	<path class="st4" d="M95.24,69.03l1.03,0.23c0.11-0.97,0.23-2.29,0.46-2.68l1.6,0.23c0.11,0.63-0.23,1.43-0.29,2.11l0.91,0.11
		c0.06-0.46,0.17-1.6,0.4-2l1.43,0.17l-0.46,2.51l1.03,0.17l0.63-3.77l-5.94-1.03L95.24,69.03L95.24,69.03z"/>
	<path class="st4" d="M95.76,52.35l0.51,3.88l0.97-0.06c0.11-0.63-0.29-1.89-0.34-2.63c0.4-0.17,1.2-0.34,1.71-0.29l0.23,1.94
		l0.97-0.06l-0.34-2.11l1.49-0.23c0.29,3.08,0.11,2.51,1.26,2.4l-0.51-3.77L95.76,52.35z"/>
	<path class="st4" d="M46.91,18.13c0.8-0.23,1.94-0.63,2.17,0.4c0.23,0.91-0.74,1.49-1.6,1.49L46.91,18.13L46.91,18.13z
		 M45.54,17.61l1.54,5.83l1.26-0.29l-0.63-2.17c0.29-0.23,3.43-0.91,2.4-3.26c-0.34-0.74-1.09-0.97-2.17-0.8
		C47.54,16.98,45.83,17.44,45.54,17.61z"/>
	<path class="st4" d="M19.95,56.23l0.91,0.4c0.57-0.86,1.2-4.06-0.86-4.46c-2.4-0.4-2.29,2.97-3.66,2.4c-0.51-0.69,0-1.71,0.17-2.4
		l-1.03-0.34c-0.29,0.97-0.63,2.29-0.17,3.2c0.51,0.91,1.77,1.09,2.63,0.29c0.51-0.46,1.14-2.06,1.89-2
		C20.98,53.55,20.12,55.72,19.95,56.23L19.95,56.23z"/>
	<path class="st4" d="M89.59,37.66c0.34-0.11,0.69-0.34,0.86-0.63c-1.14-0.63-2.11-2.29-0.74-3.6c2.11-2,3.37,0.74,3.54,0.91
		l0.86-0.46c-0.34-1.6-3.08-3.31-5.2-1.43c-0.69,0.57-1.37,1.54-1.03,2.91C88.1,36.41,88.96,37.15,89.59,37.66L89.59,37.66z"/>
	<polygon class="st4" points="66.79,17.38 68.51,17.67 67.37,22.7 68.62,22.98 69.71,18.01 71.42,18.41 71.65,17.5 67.02,16.36 	"/>
	<path class="st4" d="M15.55,67.14l1.03,4.68l0.97-0.17l-0.46-1.77c1.37-0.4,3.54-0.91,4.97-1.09l-0.23-1.26l-5.03,1.14l-0.34-1.66
		L15.55,67.14L15.55,67.14z"/>
	<path class="st4" d="M59.03,16.87l-0.11,4.86l3.77,0.06c0.17-0.34,0.17-0.63,0.17-0.97h-2.68l0.17-5.14h-1.31L59.03,16.87
		L59.03,16.87z"/>
	<path class="st4" d="M28.35,27.84c0.63,0.4,2.51,2.63,3.08,3.2c0.4,0.4,0.51,0.69,1.03,1.09c0.29-0.23,0.69-0.57,0.91-0.86
		l-4.06-4.4C28.98,27.04,28.58,27.38,28.35,27.84L28.35,27.84z"/>
	<path class="st4" d="M63.54,22.01l1.26,0.17l0.69-6.06c-0.4-0.06-0.86-0.17-1.31-0.06L63.54,22.01z"/>
	<path class="st4" d="M40.97,99.53c0.51-1.71,1.77-3.77,2.51-5.43l-0.06-0.06l-0.06-0.06l-0.97-0.51c-0.11,0.11-2.46,5.26-2.57,5.54
		L40.97,99.53z"/>
	<path class="st5" d="M218.12,63.71c-0.29-2.51-0.4-11.37-0.34-14.17c3.77-0.23,7.83-0.4,11.31,0.57c3.2,0.86,5.83,2.63,5.94,6.4
		c0.06,4.11-2.23,5.88-5.6,6.74C227.26,63.83,220.18,64.57,218.12,63.71z M222.29,29.49c1.66-0.06,3.48-0.06,5.08,0.29
		c2.97,0.69,4.91,2.51,5.03,5.94c0.11,3.54-1.94,5.31-4.68,6.23c-2.4,0.8-7.26,1.2-9.88,0.8c0-2.11,0-4.34-0.06-6.46
		s-0.29-4.23-0.29-6.23L222.29,29.49L222.29,29.49z M208.01,24.81c0.23,0.34,0.4,5.83,0.23,6.46c0.34,0.57,0.17,4.63,0.17,5.66
		c0,1.89,0.06,3.83,0.06,5.77c0,4.68,0,9.43-0.06,14.11c-0.06,2.34-0.06,4.68-0.17,7.08c-0.06,2.17-0.29,4.8-0.23,6.97
		c10.91,0.06,24.91,1.54,32.45-4.51c3.94-3.14,5.48-8.74,4.06-13.77c-0.8-2.68-2.06-4-3.94-5.37c-3.08-2.23-5.6-2.23-6.63-2.68v-0.4
		c0.63-0.51,6.74-1.71,8.05-8.05c0.51-2.34,0.34-5.03-0.51-7.03c-2.57-6.17-11.6-6.51-17.6-6.46c-5.26,0.06-10.51,0.23-15.88,0.23
		L208.01,24.81L208.01,24.81z"/>
	<path class="st5" d="M193.56,31.27c2,0.97,3.6,4.74,2.74,7.94c-0.63,2.97-2.68,4.63-5.43,5.6c-2.34,0.86-7.31,1.37-10,0.97v-4.8
		l-0.17-7.2l-0.17-3.71c1.6-0.86,7.83-0.8,10.45,0C191.67,30.29,193.27,30.81,193.56,31.27L193.56,31.27z M171.28,35.61l0.11,4.06
		c0,1.37,0,2.8,0.06,4.17v5.83c-0.06,3.54-0.06,7.08-0.11,10.63c-0.06,3.48-0.29,7.03-0.34,10.51h10.34
		c0.06-2.86-0.17-6.11-0.23-9.03c-0.06-3.08-0.11-6.17-0.11-9.25c6.06,0.11,10.51-0.29,15.48-2.51c2.23-1.03,4.06-2.23,5.43-3.54
		c1.89-1.89,2.4-3.14,3.37-5.6c0.8-3.54,1.09-5.48,0.34-9.14c-0.86-2.51-1.89-4.11-3.54-5.37c-1.2-1.09-3.88-2.34-5.83-2.91
		c-4.63-1.37-11.37-0.86-16.45-0.74c-2.91,0.06-5.83,0-8.8,0.06C170.76,24.87,171.68,34.24,171.28,35.61L171.28,35.61z"/>
	<path class="st5" d="M135,32.58c0.11,0.8-0.74,4,0.57,7.48c1.54,4.11,4.51,6.51,8.23,8.45c1.37,0.74,5.14,2.34,5.66,2.63
		c0.74,0.23,3.2,1.43,3.6,1.83c0.74,0.11,2.63,1.54,3.08,2c0.74,0.69,1.6,1.77,1.83,3.26c0.57,3.48-1.66,4.8-4.57,5.43
		c-2.68,0.57-6.68,0.63-9.48,0.34c-1.54-0.17-2.91-0.4-4.34-0.74c-0.69-0.17-3.6-1.09-3.94-1.09l-0.51,2
		c0.11,0.8-1.03,4.97-1.26,6.17c8.28,2.4,25.54,3.43,31.42-4.57c3.37-4.63,2.06-9.03,2.34-10.45c-0.17-0.29-0.17-0.34-0.23-0.69
		c-0.57-2.97-1.94-5.26-4.11-7.31c-0.23-0.17-0.29-0.29-0.57-0.51c-1.26-1.14-4.11-2.74-4.23-2.97c-0.63-0.06-1.49-0.69-2.11-0.97
		l-6.51-2.8c-2.63-1.2-6.23-2.91-5.37-6.86c0.69-3.14,5.14-3.77,8.74-3.71c6.8,0.06,9.25,1.6,10.68,1.71l1.31-8.05
		c-0.4-0.23-1.66-0.46-2.23-0.51c-7.26-0.91-18.62-2-24.39,3.6C135.18,29.67,135.46,31.95,135,32.58L135,32.58z"/>
	<path class="st5" d="M120.49,32.07l0.11,6.57c0.06,5.2,0.06,10.4,0,15.6c-0.06,4.91,0,10.34-0.4,15.25l-0.06,1.26h10.45l-0.34-12.8
		l-0.06-20.51l0.23-10.23l0.17-4.51h-10.4L120.49,32.07L120.49,32.07z"/>
	<path class="st6" d="M189.1,94.22h1.71l0.06-0.86l-1.71-0.06c0.17,0.17-0.23,0.06,0.34,0.17l1.31-0.06v0.69
		c-0.29,0-0.57-0.06-0.86-0.06C188.93,94.05,189.16,94.11,189.1,94.22z"/>
	<text transform="matrix(1 0 0 1 120.2148 89.4363)" class="st7 st8">INSTITUTO SUPERIOR</text>
	<text transform="matrix(1 0 0 1 120.2148 96.2917)" class="st7 st8">POLITÉCNICO DE BENGUELA</text>
</g>
</svg>
